<svg width="64" height="64" fill="none" xmlns="http://www.w3.org/2000/svg"><g clip-path="url(#a)"><path d="M32 64c17.673 0 32-14.327 32-32C64 14.327 49.673 0 32 0 14.327 0 0 14.327 0 32c0 17.673 14.327 32 32 32z" fill="#fff"/><path d="M63.73 27.824H25.045V.76a31.782 31.782 0 0 0-8.348 3.13v23.935H.272a32.273 32.273 0 0 0 0 8.348h16.425v23.935a31.78 31.78 0 0 0 8.348 3.13V36.172H63.73a32.316 32.316 0 0 0 0-8.348z" fill="#144199"/></g><defs><clipPath id="a"><path fill="#fff" d="M0 0h64v64H0z"/></clipPath></defs></svg>