<svg width="64" height="64" fill="none" xmlns="http://www.w3.org/2000/svg"><g clip-path="url(#a)"><path d="M1.99 20.87A31.932 31.932 0 0 0 0 32c0 3.915.704 7.664 1.99 11.13L32 45.914l30.01-2.782A31.93 31.93 0 0 0 64 32c0-3.915-.704-7.664-1.99-11.131L32 18.087 1.99 20.87z" fill="#FAFAFA"/><path d="M32 0C18.241 0 6.512 8.684 1.99 20.87h60.02C57.49 8.684 45.76 0 32 0z" fill="#D80027"/><path d="M32.001 64c13.76 0 25.488-8.684 30.01-20.87H1.99C6.514 55.317 18.243 64 32.002 64z" fill="#83B135"/></g><defs><clipPath id="a"><path fill="#fff" d="M0 0h64v64H0z"/></clipPath></defs></svg>