<svg width="64" height="64" fill="none" xmlns="http://www.w3.org/2000/svg"><g clip-path="url(#a)"><path d="M32 64c17.673 0 32-14.327 32-32C64 14.327 49.673 0 32 0 14.327 0 0 14.327 0 32c0 17.673 14.327 32 32 32z" fill="#FAFAFA"/><path d="M1.105 40.347a32.027 32.027 0 0 0 11.42 17.04v-17.04H1.105zM29.22 63.877c.917.08 1.845.122 2.782.122C46.787 64 59.228 53.972 62.9 40.347H29.22v23.53zM62.9 23.652C59.228 10.027 46.787 0 32.002 0c-.937 0-1.865.042-2.782.121v23.53H62.9zM12.525 6.611a32.028 32.028 0 0 0-11.42 17.04h11.42V6.612z" fill="#D80027"/><path d="M63.73 27.825H25.043V.76a31.783 31.783 0 0 0-8.348 3.13v23.935H.27a32.276 32.276 0 0 0 0 8.348h16.424v23.935a31.786 31.786 0 0 0 8.349 3.13V36.173h38.685a32.313 32.313 0 0 0 0-8.348z" fill="#144199"/></g><defs><clipPath id="a"><path fill="#fff" d="M0 0h64v64H0z"/></clipPath></defs></svg>