<svg width="64" height="64" fill="none" xmlns="http://www.w3.org/2000/svg"><g clip-path="url(#a)"><path d="M0 32C0 45.76 8.684 57.49 20.87 62.01L23.653 32 20.87 1.99C8.684 6.513 0 18.243 0 32z" fill="#83B135"/><path d="M64 32.002c0-17.674-14.328-32-32-32-3.915 0-7.665.704-11.131 1.99v60.02a31.93 31.93 0 0 0 11.13 1.99c17.673 0 32-14.327 32-32z" fill="#D80027"/><path d="M20.87 43.132c6.147 0 11.13-4.983 11.13-11.13 0-6.148-4.983-11.13-11.13-11.13-6.147 0-11.13 4.982-11.13 11.13 0 6.147 4.983 11.13 11.13 11.13z" fill="gold"/><path d="M14.608 26.436v6.956a6.26 6.26 0 1 0 12.522 0v-6.957H14.608z" fill="#D80027"/><path d="M20.869 35.479a2.09 2.09 0 0 1-2.087-2.087V30.61h4.173v2.782c0 1.15-.936 2.087-2.086 2.087z" fill="#FAFAFA"/></g><defs><clipPath id="a"><path fill="#fff" d="M0 0h64v64H0z"/></clipPath></defs></svg>