<svg width="64" height="64" fill="none" xmlns="http://www.w3.org/2000/svg"><g clip-path="url(#a)"><path d="M43.132 1.99A31.934 31.934 0 0 0 32.002 0c-3.914 0-7.664.704-11.13 1.99L18.088 32l2.783 30.009a31.925 31.925 0 0 0 11.13 1.99c3.914 0 7.664-.704 11.13-1.99l2.783-30.01-2.783-30.01z" fill="gold"/><path d="M64 32C64 18.24 55.317 6.51 43.13 1.99v60.02C55.317 57.486 64 45.757 64 32z" fill="#D80027"/><path d="M0 31.997c0 13.76 8.684 25.488 20.87 30.01V1.987C8.683 6.51 0 18.239 0 31.998z" fill="#144199"/></g><defs><clipPath id="a"><path fill="#fff" d="M0 0h64v64H0z"/></clipPath></defs></svg>