<svg width="64" height="64" fill="none" xmlns="http://www.w3.org/2000/svg"><g clip-path="url(#a)"><path d="M62.01 43.13A31.928 31.928 0 0 0 64 31.998c0-3.914-.704-7.664-1.99-11.13H1.99A31.93 31.93 0 0 0 0 31.999c0 3.914.704 7.664 1.99 11.13h60.02z" fill="#144199"/><path d="M31.999 64c13.759 0 25.488-8.684 30.01-20.87H1.988C6.511 55.317 18.24 64 32 64z" fill="#D80027"/><path d="M31.999 0C18.239 0 6.51 8.684 1.989 20.87h60.02C57.486 8.684 45.757 0 31.998 0z" fill="#fff"/></g><defs><clipPath id="a"><path fill="#fff" d="M0 0h64v64H0z"/></clipPath></defs></svg>