<svg width="64" height="64" fill="none" xmlns="http://www.w3.org/2000/svg"><g clip-path="url(#a)"><path d="M32 64c17.673 0 32-14.327 32-32C64 14.327 49.673 0 32 0 14.327 0 0 14.327 0 32c0 17.673 14.327 32 32 32z" fill="gold"/><path d="M25.044 27.825h38.685C61.684 12.124 48.26-.001 32-.001c-2.389 0-4.716.264-6.956.76v27.066zM16.695 27.823V3.888C7.91 8.682 1.62 17.476.271 27.823h16.424zM16.695 36.172H.271C1.619 46.52 7.909 55.313 16.695 60.108V36.172zM25.044 36.172v27.066c2.24.496 4.567.76 6.956.76 16.259 0 29.684-12.125 31.73-27.826H25.043z" fill="#144199"/></g><defs><clipPath id="a"><path fill="#fff" d="M0 0h64v64H0z"/></clipPath></defs></svg>