<svg width="64" height="64" fill="none" xmlns="http://www.w3.org/2000/svg"><g clip-path="url(#a)"><path d="M32 10.669h23.85a32 32 0 0 1 6.16 10.204H1.99A31.999 31.999 0 0 1 8.15 10.668H32zM32 53.33h23.85a32.001 32.001 0 0 0 6.16-10.204H1.99A32 32 0 0 0 8.15 53.33H32z" fill="#fff"/><path d="M62.01 20.871H1.99A31.928 31.928 0 0 0 0 32.001c0 3.915.704 7.664 1.99 11.13h60.02A31.932 31.932 0 0 0 64 32.002c0-3.914-.704-7.663-1.99-11.13z" fill="#144199"/><path d="M32.002 0c-9.7 0-18.39 4.316-24.258 11.13H56.26C50.391 4.315 41.701 0 32.002 0zM56.257 52.87H7.742C13.61 59.685 22.3 64 31.999 64c9.7 0 18.39-4.315 24.258-11.13z" fill="#D80027"/></g><defs><clipPath id="a"><path fill="#fff" d="M0 0h64v64H0z"/></clipPath></defs></svg>