<svg width="64" height="64" fill="none" xmlns="http://www.w3.org/2000/svg"><g clip-path="url(#a)"><path d="M32 64c17.673 0 32-14.327 32-32C64 14.327 49.673 0 32 0 14.327 0 0 14.327 0 32c0 17.673 14.327 32 32 32z" fill="#D80027"/><path d="m30.69 26.149 2.626 3.618 4.252-1.379-2.63 3.615 2.625 3.618-4.25-1.384-2.63 3.615.003-4.47-4.25-1.384 4.251-1.379.003-4.47z" fill="#FAFAFA"/><path d="M23.525 41.044a9.044 9.044 0 1 1 4.302-17 11.092 11.092 0 0 0-7.78-3.174c-6.147 0-11.13 4.983-11.13 11.13 0 6.147 4.983 11.13 11.13 11.13 3.029 0 5.773-1.211 7.78-3.174a9 9 0 0 1-4.302 1.088z" fill="#FAFAFA"/></g><defs><clipPath id="a"><path fill="#fff" d="M0 0h64v64H0z"/></clipPath></defs></svg>